<mxfile host="app.diagrams.net" agent="Mozilla/5.0 (Windows NT 10.0; Win64; x64) AppleWebKit/537.36 (KHTML, like Gecko) Chrome/140.0.0.0 Safari/537.36" version="26.0.6">
  <diagram name="Page-1" id="YIA5WzrN-b8r_R6kGvyN">
    <mxGraphModel dx="2150" dy="1030" grid="1" gridSize="10" guides="1" tooltips="1" connect="1" arrows="1" fold="1" page="1" pageScale="1" pageWidth="827" pageHeight="1169" math="0" shadow="0">
      <root>
        <mxCell id="0" />
        <mxCell id="1" parent="0" />
        <mxCell id="z7q2-SJSHcn4AbD3mQaB-1" style="edgeStyle=orthogonalEdgeStyle;rounded=0;orthogonalLoop=1;jettySize=auto;html=1;" edge="1" parent="1" source="2jsiGnZGVnY6SlIdnX9f-6" target="2jsiGnZGVnY6SlIdnX9f-3">
          <mxGeometry relative="1" as="geometry" />
        </mxCell>
        <mxCell id="2jsiGnZGVnY6SlIdnX9f-6" value="" style="image;points=[];aspect=fixed;html=1;align=center;shadow=0;dashed=0;image=img/lib/allied_telesis/computer_and_terminals/Personal_Computer.svg;" parent="1" vertex="1">
          <mxGeometry x="34.9" y="220" width="45.6" height="61.800000000000004" as="geometry" />
        </mxCell>
        <mxCell id="2jsiGnZGVnY6SlIdnX9f-14" value="" style="outlineConnect=0;dashed=0;verticalLabelPosition=bottom;verticalAlign=top;align=center;html=1;shape=mxgraph.aws3.mobile_client;fillColor=#D2D3D3;gradientColor=none;" parent="1" vertex="1">
          <mxGeometry x="40.00000000000002" y="320" width="40.5" height="63" as="geometry" />
        </mxCell>
        <mxCell id="2jsiGnZGVnY6SlIdnX9f-18" value="AWS Cloud" style="points=[[0,0],[0.25,0],[0.5,0],[0.75,0],[1,0],[1,0.25],[1,0.5],[1,0.75],[1,1],[0.75,1],[0.5,1],[0.25,1],[0,1],[0,0.75],[0,0.5],[0,0.25]];outlineConnect=0;gradientColor=none;html=1;whiteSpace=wrap;fontSize=12;fontStyle=0;container=1;pointerEvents=0;collapsible=0;recursiveResize=0;shape=mxgraph.aws4.group;grIcon=mxgraph.aws4.group_aws_cloud;strokeColor=#232F3E;fillColor=none;verticalAlign=top;align=left;spacingLeft=30;fontColor=#232F3E;dashed=0;" parent="1" vertex="1">
          <mxGeometry x="200" y="50" width="600" height="490" as="geometry" />
        </mxCell>
        <mxCell id="2jsiGnZGVnY6SlIdnX9f-27" value="Region" style="points=[[0,0],[0.25,0],[0.5,0],[0.75,0],[1,0],[1,0.25],[1,0.5],[1,0.75],[1,1],[0.75,1],[0.5,1],[0.25,1],[0,1],[0,0.75],[0,0.5],[0,0.25]];outlineConnect=0;gradientColor=none;html=1;whiteSpace=wrap;fontSize=12;fontStyle=0;container=1;pointerEvents=0;collapsible=0;recursiveResize=0;shape=mxgraph.aws4.group;grIcon=mxgraph.aws4.group_region;strokeColor=#00A4A6;fillColor=none;verticalAlign=top;align=left;spacingLeft=30;fontColor=#147EBA;dashed=1;" parent="1" vertex="1">
          <mxGeometry x="220" y="80" width="550" height="430" as="geometry" />
        </mxCell>
        <mxCell id="2jsiGnZGVnY6SlIdnX9f-3" value="" style="sketch=0;points=[[0,0,0],[0.25,0,0],[0.5,0,0],[0.75,0,0],[1,0,0],[0,1,0],[0.25,1,0],[0.5,1,0],[0.75,1,0],[1,1,0],[0,0.25,0],[0,0.5,0],[0,0.75,0],[1,0.25,0],[1,0.5,0],[1,0.75,0]];outlineConnect=0;fontColor=#232F3E;fillColor=#8C4FFF;strokeColor=#ffffff;dashed=0;verticalLabelPosition=bottom;verticalAlign=top;align=center;html=1;fontSize=12;fontStyle=0;aspect=fixed;shape=mxgraph.aws4.resourceIcon;resIcon=mxgraph.aws4.api_gateway;" parent="2jsiGnZGVnY6SlIdnX9f-27" vertex="1">
          <mxGeometry x="196" y="176" width="78" height="78" as="geometry" />
        </mxCell>
        <mxCell id="2jsiGnZGVnY6SlIdnX9f-2" value="" style="outlineConnect=0;dashed=0;verticalLabelPosition=bottom;verticalAlign=top;align=center;html=1;shape=mxgraph.aws3.lambda_function;fillColor=#F58534;gradientColor=none;" parent="2jsiGnZGVnY6SlIdnX9f-27" vertex="1">
          <mxGeometry x="350" y="179" width="69" height="72" as="geometry" />
        </mxCell>
        <mxCell id="2jsiGnZGVnY6SlIdnX9f-1" value="" style="outlineConnect=0;dashed=0;verticalLabelPosition=bottom;verticalAlign=top;align=center;html=1;shape=mxgraph.aws3.dynamo_db;fillColor=#2E73B8;gradientColor=none;" parent="2jsiGnZGVnY6SlIdnX9f-27" vertex="1">
          <mxGeometry x="348.5" y="310" width="72" height="81" as="geometry" />
        </mxCell>
        <mxCell id="2jsiGnZGVnY6SlIdnX9f-4" value="" style="sketch=0;points=[[0,0,0],[0.25,0,0],[0.5,0,0],[0.75,0,0],[1,0,0],[0,1,0],[0.25,1,0],[0.5,1,0],[0.75,1,0],[1,1,0],[0,0.25,0],[0,0.5,0],[0,0.75,0],[1,0.25,0],[1,0.5,0],[1,0.75,0]];outlineConnect=0;fontColor=#232F3E;fillColor=#DD344C;strokeColor=#ffffff;dashed=0;verticalLabelPosition=bottom;verticalAlign=top;align=center;html=1;fontSize=12;fontStyle=0;aspect=fixed;shape=mxgraph.aws4.resourceIcon;resIcon=mxgraph.aws4.cognito;" parent="2jsiGnZGVnY6SlIdnX9f-27" vertex="1">
          <mxGeometry x="196" y="50" width="78" height="78" as="geometry" />
        </mxCell>
        <mxCell id="2jsiGnZGVnY6SlIdnX9f-33" style="edgeStyle=orthogonalEdgeStyle;rounded=0;orthogonalLoop=1;jettySize=auto;html=1;exitX=1;exitY=0.5;exitDx=0;exitDy=0;exitPerimeter=0;entryX=0;entryY=0.5;entryDx=0;entryDy=0;entryPerimeter=0;" parent="2jsiGnZGVnY6SlIdnX9f-27" source="2jsiGnZGVnY6SlIdnX9f-3" target="2jsiGnZGVnY6SlIdnX9f-2" edge="1">
          <mxGeometry relative="1" as="geometry" />
        </mxCell>
        <mxCell id="2jsiGnZGVnY6SlIdnX9f-34" style="edgeStyle=orthogonalEdgeStyle;rounded=0;orthogonalLoop=1;jettySize=auto;html=1;exitX=0.5;exitY=1;exitDx=0;exitDy=0;exitPerimeter=0;entryX=0.5;entryY=0;entryDx=0;entryDy=0;entryPerimeter=0;" parent="2jsiGnZGVnY6SlIdnX9f-27" source="2jsiGnZGVnY6SlIdnX9f-2" target="2jsiGnZGVnY6SlIdnX9f-1" edge="1">
          <mxGeometry relative="1" as="geometry" />
        </mxCell>
        <mxCell id="2jsiGnZGVnY6SlIdnX9f-37" value="&lt;h3&gt;&lt;span style=&quot;font-weight: normal;&quot;&gt;Cognito&lt;/span&gt;&lt;/h3&gt;" style="text;html=1;align=center;verticalAlign=middle;whiteSpace=wrap;rounded=0;" parent="2jsiGnZGVnY6SlIdnX9f-27" vertex="1">
          <mxGeometry x="194.5" y="1" width="81" height="29" as="geometry" />
        </mxCell>
        <mxCell id="2jsiGnZGVnY6SlIdnX9f-46" value="&lt;h3&gt;&lt;span style=&quot;font-weight: normal;&quot;&gt;DynamoDB&lt;/span&gt;&lt;/h3&gt;" style="text;html=1;align=center;verticalAlign=middle;whiteSpace=wrap;rounded=0;" parent="2jsiGnZGVnY6SlIdnX9f-27" vertex="1">
          <mxGeometry x="344" y="391" width="81" height="30" as="geometry" />
        </mxCell>
        <mxCell id="2jsiGnZGVnY6SlIdnX9f-45" value="&lt;h3&gt;&lt;span style=&quot;font-weight: normal;&quot;&gt;Lambda Function&lt;/span&gt;&lt;/h3&gt;" style="text;html=1;align=center;verticalAlign=middle;whiteSpace=wrap;rounded=0;" parent="2jsiGnZGVnY6SlIdnX9f-27" vertex="1">
          <mxGeometry x="344" y="146" width="81" height="30" as="geometry" />
        </mxCell>
        <mxCell id="2jsiGnZGVnY6SlIdnX9f-44" value="&lt;h3&gt;&lt;span style=&quot;font-weight: normal;&quot;&gt;ApiGateway&lt;/span&gt;&lt;/h3&gt;" style="text;html=1;align=center;verticalAlign=middle;whiteSpace=wrap;rounded=0;" parent="2jsiGnZGVnY6SlIdnX9f-27" vertex="1">
          <mxGeometry x="194.5" y="254" width="81" height="30" as="geometry" />
        </mxCell>
        <mxCell id="2jsiGnZGVnY6SlIdnX9f-52" style="edgeStyle=orthogonalEdgeStyle;rounded=0;orthogonalLoop=1;jettySize=auto;html=1;entryX=1;entryY=0.5;entryDx=0;entryDy=0;entryPerimeter=0;" parent="2jsiGnZGVnY6SlIdnX9f-27" source="2jsiGnZGVnY6SlIdnX9f-2" target="2jsiGnZGVnY6SlIdnX9f-3" edge="1">
          <mxGeometry relative="1" as="geometry" />
        </mxCell>
        <mxCell id="2jsiGnZGVnY6SlIdnX9f-53" style="edgeStyle=orthogonalEdgeStyle;rounded=0;orthogonalLoop=1;jettySize=auto;html=1;exitX=0.5;exitY=0;exitDx=0;exitDy=0;exitPerimeter=0;entryX=0.5;entryY=1;entryDx=0;entryDy=0;entryPerimeter=0;" parent="2jsiGnZGVnY6SlIdnX9f-27" source="2jsiGnZGVnY6SlIdnX9f-3" target="2jsiGnZGVnY6SlIdnX9f-4" edge="1">
          <mxGeometry relative="1" as="geometry" />
        </mxCell>
        <mxCell id="2jsiGnZGVnY6SlIdnX9f-54" style="edgeStyle=orthogonalEdgeStyle;rounded=0;orthogonalLoop=1;jettySize=auto;html=1;exitX=0.5;exitY=1;exitDx=0;exitDy=0;exitPerimeter=0;entryX=0.5;entryY=0;entryDx=0;entryDy=0;entryPerimeter=0;" parent="2jsiGnZGVnY6SlIdnX9f-27" source="2jsiGnZGVnY6SlIdnX9f-4" target="2jsiGnZGVnY6SlIdnX9f-3" edge="1">
          <mxGeometry relative="1" as="geometry" />
        </mxCell>
        <mxCell id="z7q2-SJSHcn4AbD3mQaB-9" style="edgeStyle=orthogonalEdgeStyle;rounded=0;orthogonalLoop=1;jettySize=auto;html=1;" edge="1" parent="2jsiGnZGVnY6SlIdnX9f-27" source="z7q2-SJSHcn4AbD3mQaB-5" target="2jsiGnZGVnY6SlIdnX9f-2">
          <mxGeometry relative="1" as="geometry" />
        </mxCell>
        <mxCell id="z7q2-SJSHcn4AbD3mQaB-5" value="" style="sketch=0;outlineConnect=0;fontColor=#232F3E;gradientColor=none;fillColor=#DD344C;strokeColor=none;dashed=0;verticalLabelPosition=bottom;verticalAlign=top;align=center;html=1;fontSize=12;fontStyle=0;aspect=fixed;pointerEvents=1;shape=mxgraph.aws4.role;" vertex="1" parent="2jsiGnZGVnY6SlIdnX9f-27">
          <mxGeometry x="487.5" y="205" width="38" height="21.44" as="geometry" />
        </mxCell>
        <mxCell id="z7q2-SJSHcn4AbD3mQaB-8" value="&lt;h3&gt;&lt;span style=&quot;font-weight: normal;&quot;&gt;IAM Role&lt;/span&gt;&lt;/h3&gt;" style="text;html=1;align=center;verticalAlign=middle;whiteSpace=wrap;rounded=0;" vertex="1" parent="2jsiGnZGVnY6SlIdnX9f-27">
          <mxGeometry x="466" y="175" width="81" height="30" as="geometry" />
        </mxCell>
        <mxCell id="z7q2-SJSHcn4AbD3mQaB-10" style="edgeStyle=orthogonalEdgeStyle;rounded=0;orthogonalLoop=1;jettySize=auto;html=1;entryX=0.5;entryY=1;entryDx=0;entryDy=0;entryPerimeter=0;" edge="1" parent="2jsiGnZGVnY6SlIdnX9f-27" source="2jsiGnZGVnY6SlIdnX9f-1" target="2jsiGnZGVnY6SlIdnX9f-2">
          <mxGeometry relative="1" as="geometry" />
        </mxCell>
        <mxCell id="z7q2-SJSHcn4AbD3mQaB-11" value="Authentication &amp;amp; Identity" style="text;whiteSpace=wrap;html=1;" vertex="1" parent="2jsiGnZGVnY6SlIdnX9f-27">
          <mxGeometry x="170" y="20" width="160" height="20" as="geometry" />
        </mxCell>
        <mxCell id="z7q2-SJSHcn4AbD3mQaB-78" value="" style="shape=image;verticalLabelPosition=bottom;labelBackgroundColor=default;verticalAlign=top;aspect=fixed;imageAspect=0;editableCssRules=.*;image=data:image/svg+xml,PHN2ZyB4bWxucz0iaHR0cDovL3d3dy53My5vcmcvMjAwMC9zdmciIGZpbGw9Im5vbmUiIHZpZXdCb3g9IjAgLTMwIDE1MCAxNTAiIGhlaWdodD0iODAwcHgiIHdpZHRoPSI4MDBweCI+JiN4YTsgIDxwYXRoIGZpbGw9IiNGOTAiIGQ9Ik0xMjIuNzE0IDYyLjcwM2M1LjI4LS42NDMgMTYuOTI0LTIuMDI3IDE4Ljk5Ny42NDMgMi4wNzIgMi42MjEtMi4zMTkgMTMuNjQ5LTQuMjkzIDE4LjU0NC0uNTkyIDEuNDg0LjY5MSAyLjA3NyAyLjAyMy45NCA4LjY4NC03LjMxOSAxMC45NTQtMjIuNiA5LjE3OC0yNC44MjUtMS43NzctMi4xNzUtMTcuMDIzLTQuMDU1LTI2LjMgMi40NzMtMS40MzEgMS4wMzgtMS4xODQgMi40MjMuMzk1IDIuMjI1eiIvPiYjeGE7ICA8cGF0aCBmaWxsPSIjRjkwIiBkPSJNNzQuODUyIDg5LjQ1NmMyMC4yOCAwIDQzLjg2NS02LjM4IDYwLjA5OS0xOC4zOTYgMi42NjQtMS45NzguMzQ1LTQuOTk0LTIuMzY5LTMuNzU4LTE4LjIwNyA3LjcxNC0zNy45OTMgMTEuNDczLTU2LjAwMyAxMS40NzMtMjYuNjk0IDAtNTIuNS03LjM2OC03My40Mi0xOS41MzMtMS44MjctMS4wODgtMy4yMDguNzkxLTEuNjc5IDIuMTc2IDE5LjM0MyAxNy41MDUgNDQuOTUxIDI4LjAzOCA3My4zNzIgMjguMDM4eiIvPiYjeGE7ICA8cGF0aCBmaWxsPSIjMjUyRjNFIiBkPSJNNDIuNjMyIDMyLjgzNWMwIDEuODMuMTk3IDMuMzEzLjU0MiA0LjQwMWEyNi41MDUgMjYuNTA1IDAgMDAxLjU4IDMuNTZjLjI0Ni4zOTYuMzQ1Ljc5Mi4zNDUgMS4xMzggMCAuNDk1LS4yOTYuOTktLjkzOCAxLjQ4NGwtMy4xMDggMi4wNzdjLS40NDQuMjk2LS44ODkuNDQ1LTEuMjgzLjQ0NS0uNDk0IDAtLjk4Ny0uMjQ4LTEuNDgtLjY5M2ExNS4yOSAxNS4yOSAwIDAxLTEuNzc3LTIuMzI0IDM4LjI4IDM4LjI4IDAgMDEtMS41My0yLjkxOGMtMy44NDggNC41NS04LjY4NCA2LjgyNS0xNC41MDYgNi44MjUtNC4xNDUgMC03LjQ1LTEuMTg3LTkuODY4LTMuNTYtMi40MTgtMi4zNzQtMy42NTItNS41NC0zLjY1Mi05LjQ5NSAwLTQuMjA0IDEuNDgtNy42MTYgNC40OS0xMC4xODcgMy4wMS0yLjU3MiA3LjAwNy0zLjg1NyAxMi4wOS0zLjg1NyAxLjY3NyAwIDMuNDA0LjE0OCA1LjIzLjM5NSAxLjgyNS4yNDggMy43LjY0MyA1LjY3NCAxLjA4OHYtMy42MWMwLTMuNzU4LS43OS02LjM3OS0yLjMyLTcuOTEyLTEuNTc4LTEuNTMzLTQuMjQzLTIuMjc0LTguMDQyLTIuMjc0LTEuNzI3IDAtMy41MDMuMTk3LTUuMzI5LjY0MmEzOS4yNDcgMzkuMjQ3IDAgMDAtNS4zMjkgMS42ODIgMTQuMTQgMTQuMTQgMCAwMS0xLjcyNy42NDNjLS4zNDUuMDk4LS41OTIuMTQ4LS43OS4xNDgtLjY5IDAtMS4wMzYtLjQ5NC0xLjAzNi0xLjUzM1Y2LjU3N2MwLS43OTEuMS0xLjM4NS4zNDYtMS43My4yNDYtLjM0Ny42OS0uNjkzIDEuMzgxLTEuMDQgMS43MjctLjg5IDMuOC0xLjYzMSA2LjIxNy0yLjIyNUMyMC4yMy45NCAyMi43OTcuNjQyIDI1LjUxLjY0MmM1Ljg3MiAwIDEwLjE2NCAxLjMzNiAxMi45MjcgNC4wMDYgMi43MTQgMi42NyA0LjA5NiA2LjcyNiA0LjA5NiAxMi4xNjV2MTYuMDIyaC4wOTl6bS0yMC4wMzMgNy41MTdjMS42MjggMCAzLjMwNi0uMjk3IDUuMDgyLS44OSAxLjc3Ni0uNTk0IDMuMzU1LTEuNjgyIDQuNjg3LTMuMTY1Ljc5LS45NCAxLjM4Mi0xLjk3OCAxLjY3OC0zLjE2NS4yOTYtMS4xODcuNDkzLTIuNjIxLjQ5My00LjMwMnYtMi4wNzdhNDEuMTM1IDQxLjEzNSAwIDAwLTQuNTM5LS44NCAzNy4wOTkgMzcuMDk5IDAgMDAtNC42MzgtLjI5OGMtMy4zMDYgMC01LjcyNC42NDMtNy4zNTIgMS45NzgtMS42MjggMS4zMzYtMi40MTggMy4yMTUtMi40MTggNS42ODcgMCAyLjMyNC41OTIgNC4wNTUgMS44MjYgNS4yNDIgMS4xODQgMS4yMzYgMi45MTEgMS44MyA1LjE4IDEuODN6bTM5LjYyMSA1LjM0Yy0uODg4IDAtMS40OC0uMTQ4LTEuODc1LS40OTQtLjM5NC0uMjk3LS43NC0uOTktMS4wMzYtMS45MjlMNDcuNzE0IDUuMDQ0Yy0uMjk2LS45OS0uNDQ0LTEuNjMyLS40NDQtMS45NzggMC0uNzkxLjM5NC0xLjIzNiAxLjE4NC0xLjIzNmg0LjgzNWMuOTM4IDAgMS41OC4xNDggMS45MjUuNDk0LjM5NS4yOTcuNjkuOTkuOTg3IDEuOTI5bDguMjkgMzIuNzM2IDcuNjk3LTMyLjczNmMuMjQ2LS45OS41NDItMS42MzIuOTM3LTEuOTI5LjM5NS0uMjk3IDEuMDg1LS40OTQgMS45NzQtLjQ5NGgzLjk0N2MuOTM4IDAgMS41NzkuMTQ4IDEuOTc0LjQ5NC4zOTUuMjk3Ljc0Ljk5LjkzNyAxLjkyOWw3Ljc5NiAzMy4xMzJMOTguMjkgNC4yNTNjLjI5NS0uOTkuNjQtMS42MzIuOTg2LTEuOTI5LjM5NS0uMjk3IDEuMDM2LS40OTQgMS45MjUtLjQ5NGg0LjU4OGMuNzkgMCAxLjIzNC4zOTUgMS4yMzQgMS4yMzYgMCAuMjQ3LS4wNDkuNDk0LS4wOTkuNzkxYTcuMDQxIDcuMDQxIDAgMDEtLjM0NSAxLjIzNkw5NC42ODggNDMuMzJjLS4yOTcuOTg5LS42NDIgMS42MzEtMS4wMzcgMS45MjgtLjM5NC4yOTctMS4wMzYuNDk1LTEuODc1LjQ5NWgtNC4yNDNjLS45MzggMC0xLjU4LS4xNDktMS45NzQtLjQ5NS0uMzk0LS4zNDYtLjc0LS45ODktLjkzNy0xLjk3OGwtNy42NDgtMzEuODk1LTcuNTk5IDMxLjg0NmMtLjI0Ny45ODktLjU0MyAxLjYzMi0uOTM4IDEuOTc4LS4zOTQuMzQ2LTEuMDg1LjQ5NC0xLjk3My40OTRINjIuMjJ6bTYzLjQwNSAxLjMzNmMtMi41NjYgMC01LjEzMi0uMjk3LTcuNTk5LS44OS0yLjQ2Ny0uNTk0LTQuMzkxLTEuMjM3LTUuNjc0LTEuOTc5LS43OS0uNDQ1LTEuMzMyLS45NC0xLjUzLTEuMzg0YTMuNTAzIDMuNTAzIDAgMDEtLjI5Ni0xLjM4NXYtMi41MjJjMC0xLjAzOC4zOTUtMS41MzMgMS4xMzUtMS41MzMuMjk2IDAgLjU5Mi4wNS44ODguMTQ4LjI5Ni4xLjc0LjI5NyAxLjIzNC40OTVhMjYuNzkxIDI2Ljc5MSAwIDAwNS40MjggMS43M2MxLjk3My4zOTYgMy44OTguNTk0IDUuODcxLjU5NCAzLjEwOSAwIDUuNTI3LS41NDQgNy4yMDQtMS42MzIgMS42NzgtMS4wODggMi41NjYtMi42NyAyLjU2Ni00LjY5OCAwLTEuMzg0LS40NDQtMi41MjEtMS4zMzItMy40NjEtLjg4OC0uOTQtMi41NjYtMS43OC00Ljk4NC0yLjU3MWwtNy4xNTQtMi4yMjZjLTMuNjAyLTEuMTM3LTYuMjY3LTIuODE4LTcuODk1LTUuMDQ0LTEuNjI4LTIuMTc2LTIuNDY3LTQuNTk5LTIuNDY3LTcuMTcgMC0yLjA3Ny40NDQtMy45MDcgMS4zMzItNS40ODkuODg4LTEuNTgyIDIuMDcyLTIuOTY3IDMuNTUzLTQuMDU1IDEuNDgtMS4xMzcgMy4xNTctMS45NzggNS4xMzEtMi41NzEgMS45NzQtLjU5NCA0LjA0Ni0uODQxIDYuMjE3LS44NDEgMS4wODYgMCAyLjIyMS4wNSAzLjMwNi4xOTggMS4xMzUuMTQ4IDIuMTcxLjM0NiAzLjIwNy41NDQuOTg3LjI0NyAxLjkyNS40OTQgMi44MTMuNzkuODg4LjI5OCAxLjU3OS41OTQgMi4wNzIuODkxLjY5MS4zOTYgMS4xODUuNzkxIDEuNDgxIDEuMjM2LjI5Ni4zOTYuNDQ0Ljk0LjQ0NCAxLjYzMlY4LjE2YzAgMS4wMzktLjM5NSAxLjU4My0xLjEzNSAxLjU4My0uMzk1IDAtMS4wMzYtLjE5OC0xLjg3NS0uNTk0LTIuODEzLTEuMjg1LTUuOTcxLTEuOTI4LTkuNDc0LTEuOTI4LTIuODEyIDAtNS4wMzMuNDQ1LTYuNTYyIDEuMzg0LTEuNTMuOTQtMi4zMTkgMi4zNzQtMi4zMTkgNC40MDIgMCAxLjM4NC40OTMgMi41NyAxLjQ4IDMuNTFzMi44MTIgMS44OCA1LjQyNyAyLjcybDcuMDA3IDIuMjI2YzMuNTUzIDEuMTM3IDYuMTE4IDIuNzIgNy42NDggNC43NDcgMS41MyAyLjAyNyAyLjI3IDQuMzUxIDIuMjcgNi45MjMgMCAyLjEyNi0uNDQ0IDQuMDU1LTEuMjgzIDUuNzM2LS44ODggMS42ODEtMi4wNzIgMy4xNjUtMy42MDIgNC4zNTItMS41MyAxLjIzNi0zLjM1NSAyLjEyNi01LjQ3NyAyLjc2OS0yLjIyLjY5Mi00LjU0IDEuMDM5LTcuMDU2IDEuMDM5eiIvPiYjeGE7PC9zdmc+;" vertex="1" parent="2jsiGnZGVnY6SlIdnX9f-27">
          <mxGeometry x="10" y="336" width="94" height="94" as="geometry" />
        </mxCell>
        <mxCell id="z7q2-SJSHcn4AbD3mQaB-2" style="edgeStyle=orthogonalEdgeStyle;rounded=0;orthogonalLoop=1;jettySize=auto;html=1;entryX=0;entryY=0.5;entryDx=0;entryDy=0;entryPerimeter=0;" edge="1" parent="1" source="2jsiGnZGVnY6SlIdnX9f-14" target="2jsiGnZGVnY6SlIdnX9f-3">
          <mxGeometry relative="1" as="geometry" />
        </mxCell>
        <mxCell id="z7q2-SJSHcn4AbD3mQaB-3" style="edgeStyle=orthogonalEdgeStyle;rounded=0;orthogonalLoop=1;jettySize=auto;html=1;entryX=0.96;entryY=0.51;entryDx=0;entryDy=0;entryPerimeter=0;" edge="1" parent="1" source="2jsiGnZGVnY6SlIdnX9f-3" target="2jsiGnZGVnY6SlIdnX9f-6">
          <mxGeometry relative="1" as="geometry" />
        </mxCell>
        <mxCell id="z7q2-SJSHcn4AbD3mQaB-4" style="edgeStyle=orthogonalEdgeStyle;rounded=0;orthogonalLoop=1;jettySize=auto;html=1;" edge="1" parent="1" source="2jsiGnZGVnY6SlIdnX9f-3" target="2jsiGnZGVnY6SlIdnX9f-14">
          <mxGeometry relative="1" as="geometry" />
        </mxCell>
        <mxCell id="z7q2-SJSHcn4AbD3mQaB-61" style="edgeStyle=orthogonalEdgeStyle;rounded=0;orthogonalLoop=1;jettySize=auto;html=1;entryX=0.5;entryY=0;entryDx=0;entryDy=0;" edge="1" parent="1" source="z7q2-SJSHcn4AbD3mQaB-13" target="z7q2-SJSHcn4AbD3mQaB-58">
          <mxGeometry relative="1" as="geometry" />
        </mxCell>
        <mxCell id="z7q2-SJSHcn4AbD3mQaB-13" value="" style="shape=image;verticalLabelPosition=bottom;labelBackgroundColor=default;verticalAlign=top;aspect=fixed;imageAspect=0;editableCssRules=.*;image=data:image/svg+xml,PHN2ZyB4bWxucz0iaHR0cDovL3d3dy53My5vcmcvMjAwMC9zdmciIHZpZXdCb3g9IjAgMCAyNCAyNCIgcm9sZT0iaW1nIj48dGl0bGU+R2l0SHViIEFjdGlvbnM8L3RpdGxlPjxwYXRoIGQ9Ik0xMC45ODQgMTMuODM2YS41LjUgMCAwIDEtLjM1My0uMTQ2bC0uNzQ1LS43NDNhLjUuNSAwIDEgMSAuNzA2LS43MDhsLjM5Mi4zOTEgMS4xODEtMS4xOGEuNS41IDAgMCAxIC43MDguNzA3bC0xLjUzNSAxLjUzM2EuNTA0LjUwNCAwIDAgMS0uMzU0LjE0NnptOS4zNTMtLjE0N2wxLjUzNC0xLjUzMmEuNS41IDAgMCAwLS43MDctLjcwN2wtMS4xODEgMS4xOC0uMzkyLS4zOTFhLjUuNSAwIDEgMC0uNzA2LjcwOGwuNzQ2Ljc0M2EuNDk3LjQ5NyAwIDAgMCAuNzA2LS4wMDF6TTQuNTI3IDcuNDUybDIuNTU3LTEuNTg1QTEgMSAwIDAgMCA3LjA5IDQuMTdMNC41MzMgMi41NkExIDEgMCAwIDAgMyAzLjQwNnYzLjE5NmExLjAwMSAxLjAwMSAwIDAgMCAxLjUyNy44NXptMi4wMy0yLjQzNkw0IDYuNjAyVjMuNDA2bDIuNTU3IDEuNjF6TTI0IDEyLjVjMCAxLjkzLTEuNTcgMy41LTMuNSAzLjVhMy41MDMgMy41MDMgMCAwIDEtMy40Ni0zaC0yLjA4YTMuNTAzIDMuNTAzIDAgMCAxLTMuNDYgMyAzLjUwMiAzLjUwMiAwIDAgMS0zLjQ2LTNoLS41NThjLS45NzIgMC0xLjg1LS4zOTktMi40ODItMS4wNDJWMTdjMCAxLjY1NCAxLjM0NiAzIDMgM2guMDRjLjI0NC0xLjY5MyAxLjctMyAzLjQ2LTMgMS45MyAwIDMuNSAxLjU3IDMuNSAzLjVTMTMuNDMgMjQgMTEuNSAyNGEzLjUwMiAzLjUwMiAwIDAgMS0zLjQ2LTNIOGMtMi4yMDYgMC00LTEuNzk0LTQtNFY5Ljg5OUE1LjAwOCA1LjAwOCAwIDAgMSAwIDVjMC0yLjc1NyAyLjI0My01IDUtNXM1IDIuMjQzIDUgNWE1LjAwNSA1LjAwNSAwIDAgMS00Ljk1MiA0Ljk5OEEyLjQ4MiAyLjQ4MiAwIDAgMCA3LjQ4MiAxMmguNTU4Yy4yNDQtMS42OTMgMS43LTMgMy40Ni0zYTMuNTAyIDMuNTAyIDAgMCAxIDMuNDYgM2gyLjA4YTMuNTAzIDMuNTAzIDAgMCAxIDMuNDYtM2MxLjkzIDAgMy41IDEuNTcgMy41IDMuNXptLTE1IDhjMCAxLjM3OCAxLjEyMiAyLjUgMi41IDIuNXMyLjUtMS4xMjIgMi41LTIuNS0xLjEyMi0yLjUtMi41LTIuNVM5IDE5LjEyMiA5IDIwLjV6TTUgOWMyLjIwNiAwIDQtMS43OTQgNC00UzcuMjA2IDEgNSAxIDEgMi43OTQgMSA1czEuNzk0IDQgNCA0em05IDMuNWMwLTEuMzc4LTEuMTIyLTIuNS0yLjUtMi41UzkgMTEuMTIyIDkgMTIuNXMxLjEyMiAyLjUgMi41IDIuNSAyLjUtMS4xMjIgMi41LTIuNXptOSAwYzAtMS4zNzgtMS4xMjItMi41LTIuNS0yLjVTMTggMTEuMTIyIDE4IDEyLjVzMS4xMjIgMi41IDIuNSAyLjUgMi41LTEuMTIyIDIuNS0yLjV6bS0xMyA4YS41LjUgMCAxIDAgMSAwIC41LjUgMCAwIDAtMSAwem0yIDBhLjUuNSAwIDEgMCAxIDAgLjUuNSAwIDAgMC0xIDB6bTEyIDBjMCAxLjkzLTEuNTcgMy41LTMuNSAzLjVhMy41MDMgMy41MDMgMCAwIDEtMy40Ni0zLjAwMmMtLjAwNy4wMDEtLjAxMy4wMDUtLjAyMS4wMDVsLS41MDYuMDE3aC0uMDE3YS41LjUgMCAwIDEtLjAxNi0uOTk5bC41MDYtLjAxN2MuMDE4LS4wMDIuMDM1LjAwNi4wNTIuMDA3QTMuNTAzIDMuNTAzIDAgMCAxIDIwLjUgMTdjMS45MyAwIDMuNSAxLjU3IDMuNSAzLjV6bS0xIDBjMC0xLjM3OC0xLjEyMi0yLjUtMi41LTIuNVMxOCAxOS4xMjIgMTggMjAuNXMxLjEyMiAyLjUgMi41IDIuNSAyLjUtMS4xMjIgMi41LTIuNXoiLz48L3N2Zz4=;" vertex="1" parent="1">
          <mxGeometry x="1187.5" y="258" width="74" height="74" as="geometry" />
        </mxCell>
        <mxCell id="z7q2-SJSHcn4AbD3mQaB-15" style="edgeStyle=orthogonalEdgeStyle;rounded=0;orthogonalLoop=1;jettySize=auto;html=1;entryX=1;entryY=0.5;entryDx=0;entryDy=0;" edge="1" parent="1" source="z7q2-SJSHcn4AbD3mQaB-14" target="z7q2-SJSHcn4AbD3mQaB-13">
          <mxGeometry relative="1" as="geometry" />
        </mxCell>
        <mxCell id="z7q2-SJSHcn4AbD3mQaB-14" value="" style="dashed=0;outlineConnect=0;html=1;align=center;labelPosition=center;verticalLabelPosition=bottom;verticalAlign=top;shape=mxgraph.weblogos.github" vertex="1" parent="1">
          <mxGeometry x="1342" y="257" width="75" height="75" as="geometry" />
        </mxCell>
        <mxCell id="z7q2-SJSHcn4AbD3mQaB-22" value="&lt;h3&gt;&lt;br&gt;&lt;/h3&gt;" style="text;html=1;align=center;verticalAlign=middle;whiteSpace=wrap;rounded=0;" vertex="1" parent="1">
          <mxGeometry x="1376" y="335.5" width="81" height="30" as="geometry" />
        </mxCell>
        <mxCell id="z7q2-SJSHcn4AbD3mQaB-34" style="edgeStyle=orthogonalEdgeStyle;rounded=0;orthogonalLoop=1;jettySize=auto;html=1;" edge="1" parent="1" source="z7q2-SJSHcn4AbD3mQaB-28" target="z7q2-SJSHcn4AbD3mQaB-33">
          <mxGeometry relative="1" as="geometry" />
        </mxCell>
        <mxCell id="z7q2-SJSHcn4AbD3mQaB-28" value="" style="shape=actor;whiteSpace=wrap;html=1;" vertex="1" parent="1">
          <mxGeometry x="1222.5" y="606" width="40" height="60" as="geometry" />
        </mxCell>
        <mxCell id="z7q2-SJSHcn4AbD3mQaB-30" value="&lt;h3&gt;&lt;span style=&quot;font-weight: 400;&quot;&gt;Feature Branch&lt;/span&gt;&lt;/h3&gt;" style="text;html=1;align=center;verticalAlign=middle;whiteSpace=wrap;rounded=0;" vertex="1" parent="1">
          <mxGeometry x="1342" y="680" width="81" height="30" as="geometry" />
        </mxCell>
        <mxCell id="z7q2-SJSHcn4AbD3mQaB-31" value="&lt;h3&gt;&lt;span style=&quot;font-weight: 400;&quot;&gt;Developer&lt;/span&gt;&lt;/h3&gt;" style="text;html=1;align=center;verticalAlign=middle;whiteSpace=wrap;rounded=0;" vertex="1" parent="1">
          <mxGeometry x="1202" y="666" width="81" height="30" as="geometry" />
        </mxCell>
        <mxCell id="z7q2-SJSHcn4AbD3mQaB-36" style="edgeStyle=orthogonalEdgeStyle;rounded=0;orthogonalLoop=1;jettySize=auto;html=1;entryX=0;entryY=0.5;entryDx=0;entryDy=0;" edge="1" parent="1" source="z7q2-SJSHcn4AbD3mQaB-33" target="z7q2-SJSHcn4AbD3mQaB-35">
          <mxGeometry relative="1" as="geometry" />
        </mxCell>
        <mxCell id="z7q2-SJSHcn4AbD3mQaB-33" value="" style="shape=image;verticalLabelPosition=bottom;labelBackgroundColor=default;verticalAlign=top;aspect=fixed;imageAspect=0;editableCssRules=.*;image=data:image/svg+xml,PHN2ZyB4bWxucz0iaHR0cDovL3d3dy53My5vcmcvMjAwMC9zdmciIHZpZXdCb3g9IjAgMCAyNCAyNCIgcm9sZT0iaW1nIj48dGl0bGU+R2l0PC90aXRsZT48cGF0aCBkPSJNMjMuNTQ2IDEwLjkzTDEzLjA2Ny40NTJjLS42MDQtLjYwMy0xLjU4Mi0uNjAzLTIuMTg4IDBMOC43MDggMi42MjdsMi43NiAyLjc2Yy42NDUtLjIxNSAxLjM3OS0uMDcgMS44ODkuNDQxLjUxNi41MTUuNjU4IDEuMjU4LjQzOCAxLjlsMi42NTggMi42NmMuNjQ1LS4yMjMgMS4zODctLjA3OCAxLjkuNDM1LjcyMS43Mi43MjEgMS44ODQgMCAyLjYwNC0uNzE5LjcxOS0xLjg4MS43MTktMi42IDAtLjUzOS0uNTQxLS42NzQtMS4zMzctLjQwNC0xLjk5NkwxMi44NiA4Ljk1NXY2LjUyNWMuMTc2LjA4Ni4zNDIuMjAzLjQ4OC4zNDguNzEzLjcyMS43MTMgMS44ODMgMCAyLjYtLjcxOS43MjEtMS44ODkuNzIxLTIuNjA5IDAtLjcxOS0uNzE5LS43MTktMS44NzkgMC0yLjU5OC4xODItLjE4LjM4Ny0uMzE2LjYwNS0uNDA2VjguODM1Yy0uMjE3LS4wOTEtLjQyNC0uMjIyLS42LS40MDEtLjU0NS0uNTQ1LS42NzYtMS4zNDItLjM5Ni0yLjAwOUw3LjYzNiAzLjcuNDUgMTAuODgxYy0uNi42MDUtLjYgMS41ODQgMCAyLjE4OWwxMC40OCAxMC40NzdjLjYwNC42MDQgMS41ODIuNjA0IDIuMTg2IDBsMTAuNDMtMTAuNDNjLjYwNS0uNjAzLjYwNS0xLjU4MiAwLTIuMTg3Ii8+PC9zdmc+;" vertex="1" parent="1">
          <mxGeometry x="1342" y="596" width="81" height="81" as="geometry" />
        </mxCell>
        <mxCell id="z7q2-SJSHcn4AbD3mQaB-40" style="edgeStyle=orthogonalEdgeStyle;rounded=0;orthogonalLoop=1;jettySize=auto;html=1;" edge="1" parent="1" source="z7q2-SJSHcn4AbD3mQaB-41" target="z7q2-SJSHcn4AbD3mQaB-38">
          <mxGeometry relative="1" as="geometry" />
        </mxCell>
        <mxCell id="z7q2-SJSHcn4AbD3mQaB-35" value="" style="shape=image;verticalLabelPosition=bottom;labelBackgroundColor=default;verticalAlign=top;aspect=fixed;imageAspect=0;editableCssRules=.*;image=data:image/svg+xml,PHN2ZyB4bWxucz0iaHR0cDovL3d3dy53My5vcmcvMjAwMC9zdmciIHZpZXdCb3g9IjAgMCAxNiAxNiIgaGVpZ2h0PSIxNiIgd2lkdGg9IjE2Ij48cGF0aCBkPSJNMS41IDMuMjVhMi4yNSAyLjI1IDAgMSAxIDMgMi4xMjJ2NS4yNTZhMi4yNTEgMi4yNTEgMCAxIDEtMS41IDBWNS4zNzJBMi4yNSAyLjI1IDAgMCAxIDEuNSAzLjI1Wm01LjY3Ny0uMTc3TDkuNTczLjY3N0EuMjUuMjUgMCAwIDEgMTAgLjg1NFYyLjVoMUEyLjUgMi41IDAgMCAxIDEzLjUgNXY1LjYyOGEyLjI1MSAyLjI1MSAwIDEgMS0xLjUgMFY1YTEgMSAwIDAgMC0xLTFoLTF2MS42NDZhLjI1LjI1IDAgMCAxLS40MjcuMTc3TDcuMTc3IDMuNDI3YS4yNS4yNSAwIDAgMSAwLS4zNTRaTTMuNzUgMi41YS43NS43NSAwIDEgMCAwIDEuNS43NS43NSAwIDAgMCAwLTEuNVptMCA5LjVhLjc1Ljc1IDAgMSAwIDAgMS41Ljc1Ljc1IDAgMCAwIDAtMS41Wm04LjI1Ljc1YS43NS43NSAwIDEgMCAxLjUgMCAuNzUuNzUgMCAwIDAtMS41IDBaIi8+PC9zdmc+;" vertex="1" parent="1">
          <mxGeometry x="1502" y="596" width="81" height="81" as="geometry" />
        </mxCell>
        <mxCell id="z7q2-SJSHcn4AbD3mQaB-37" value="&lt;h3&gt;&lt;span style=&quot;font-weight: 400;&quot;&gt;Pull Request&lt;/span&gt;&lt;/h3&gt;" style="text;html=1;align=center;verticalAlign=middle;whiteSpace=wrap;rounded=0;" vertex="1" parent="1">
          <mxGeometry x="1502" y="680" width="81" height="30" as="geometry" />
        </mxCell>
        <mxCell id="z7q2-SJSHcn4AbD3mQaB-44" style="edgeStyle=orthogonalEdgeStyle;rounded=0;orthogonalLoop=1;jettySize=auto;html=1;entryX=1;entryY=0.5;entryDx=0;entryDy=0;" edge="1" parent="1" source="z7q2-SJSHcn4AbD3mQaB-38" target="z7q2-SJSHcn4AbD3mQaB-41">
          <mxGeometry relative="1" as="geometry" />
        </mxCell>
        <mxCell id="z7q2-SJSHcn4AbD3mQaB-38" value="" style="shape=image;verticalLabelPosition=bottom;labelBackgroundColor=default;verticalAlign=top;aspect=fixed;imageAspect=0;editableCssRules=.*;image=data:image/svg+xml,PHN2ZyB4bWxucz0iaHR0cDovL3d3dy53My5vcmcvMjAwMC9zdmciIHZpZXdCb3g9IjAgMCAxNiAxNiIgaGVpZ2h0PSIxNiIgd2lkdGg9IjE2Ij48cGF0aCBkPSJNNSA1Ljc4MlYyLjVoLS4yNWEuNzUuNzUgMCAwIDEgMC0xLjVoNi41YS43NS43NSAwIDAgMSAwIDEuNUgxMXYzLjI4MmwzLjY2NiA1Ljc2QzE1LjYxOSAxMy4wNCAxNC41NDMgMTUgMTIuNzY3IDE1SDMuMjMzYy0xLjc3NiAwLTIuODUyLTEuOTYtMS44OTktMy40NThabS0yLjQgNi41NjVhLjc1Ljc1IDAgMCAwIC42MzMgMS4xNTNoOS41MzRhLjc1Ljc1IDAgMCAwIC42MzMtMS4xNTNMMTIuMjI1IDEwLjVoLTguNDVaTTkuNSAyLjVoLTNWNmMwIC4xNDMtLjA0LjI4My0uMTE3LjQwM0w0LjczIDloNi41NEw5LjYxNyA2LjQwM0EuNzQ2Ljc0NiAwIDAgMSA5LjUgNloiLz48L3N2Zz4=;" vertex="1" parent="1">
          <mxGeometry x="1822" y="607" width="60" height="60" as="geometry" />
        </mxCell>
        <mxCell id="z7q2-SJSHcn4AbD3mQaB-39" value="&lt;h3&gt;&lt;span style=&quot;background-color: transparent; color: light-dark(rgb(0, 0, 0), rgb(255, 255, 255)); font-size: 12px; font-weight: normal;&quot;&gt;🧪&amp;nbsp;&lt;/span&gt;&lt;span style=&quot;font-weight: 400;&quot;&gt;&lt;font&gt;Unit &lt;/font&gt;Test&lt;br&gt;&lt;/span&gt;📑&lt;span style=&quot;background-color: transparent; color: light-dark(rgb(0, 0, 0), rgb(255, 255, 255)); font-size: 12px; font-weight: 400;&quot;&gt;Template Validation&lt;/span&gt;&lt;/h3&gt;" style="text;html=1;align=left;verticalAlign=middle;whiteSpace=wrap;rounded=0;" vertex="1" parent="1">
          <mxGeometry x="1787" y="677" width="130" height="30" as="geometry" />
        </mxCell>
        <mxCell id="z7q2-SJSHcn4AbD3mQaB-42" value="" style="edgeStyle=orthogonalEdgeStyle;rounded=0;orthogonalLoop=1;jettySize=auto;html=1;" edge="1" parent="1" source="z7q2-SJSHcn4AbD3mQaB-35" target="z7q2-SJSHcn4AbD3mQaB-41">
          <mxGeometry relative="1" as="geometry">
            <mxPoint x="1583" y="636" as="sourcePoint" />
            <mxPoint x="1832" y="638" as="targetPoint" />
          </mxGeometry>
        </mxCell>
        <mxCell id="z7q2-SJSHcn4AbD3mQaB-50" style="edgeStyle=orthogonalEdgeStyle;rounded=0;orthogonalLoop=1;jettySize=auto;html=1;" edge="1" parent="1" source="z7q2-SJSHcn4AbD3mQaB-41" target="z7q2-SJSHcn4AbD3mQaB-48">
          <mxGeometry relative="1" as="geometry" />
        </mxCell>
        <mxCell id="z7q2-SJSHcn4AbD3mQaB-41" value="" style="shape=image;verticalLabelPosition=bottom;labelBackgroundColor=default;verticalAlign=top;aspect=fixed;imageAspect=0;editableCssRules=.*;image=data:image/svg+xml,PHN2ZyB4bWxucz0iaHR0cDovL3d3dy53My5vcmcvMjAwMC9zdmciIHZpZXdCb3g9IjAgMCAyNCAyNCIgcm9sZT0iaW1nIj48dGl0bGU+R2l0SHViIEFjdGlvbnM8L3RpdGxlPjxwYXRoIGQ9Ik0xMC45ODQgMTMuODM2YS41LjUgMCAwIDEtLjM1My0uMTQ2bC0uNzQ1LS43NDNhLjUuNSAwIDEgMSAuNzA2LS43MDhsLjM5Mi4zOTEgMS4xODEtMS4xOGEuNS41IDAgMCAxIC43MDguNzA3bC0xLjUzNSAxLjUzM2EuNTA0LjUwNCAwIDAgMS0uMzU0LjE0NnptOS4zNTMtLjE0N2wxLjUzNC0xLjUzMmEuNS41IDAgMCAwLS43MDctLjcwN2wtMS4xODEgMS4xOC0uMzkyLS4zOTFhLjUuNSAwIDEgMC0uNzA2LjcwOGwuNzQ2Ljc0M2EuNDk3LjQ5NyAwIDAgMCAuNzA2LS4wMDF6TTQuNTI3IDcuNDUybDIuNTU3LTEuNTg1QTEgMSAwIDAgMCA3LjA5IDQuMTdMNC41MzMgMi41NkExIDEgMCAwIDAgMyAzLjQwNnYzLjE5NmExLjAwMSAxLjAwMSAwIDAgMCAxLjUyNy44NXptMi4wMy0yLjQzNkw0IDYuNjAyVjMuNDA2bDIuNTU3IDEuNjF6TTI0IDEyLjVjMCAxLjkzLTEuNTcgMy41LTMuNSAzLjVhMy41MDMgMy41MDMgMCAwIDEtMy40Ni0zaC0yLjA4YTMuNTAzIDMuNTAzIDAgMCAxLTMuNDYgMyAzLjUwMiAzLjUwMiAwIDAgMS0zLjQ2LTNoLS41NThjLS45NzIgMC0xLjg1LS4zOTktMi40ODItMS4wNDJWMTdjMCAxLjY1NCAxLjM0NiAzIDMgM2guMDRjLjI0NC0xLjY5MyAxLjctMyAzLjQ2LTMgMS45MyAwIDMuNSAxLjU3IDMuNSAzLjVTMTMuNDMgMjQgMTEuNSAyNGEzLjUwMiAzLjUwMiAwIDAgMS0zLjQ2LTNIOGMtMi4yMDYgMC00LTEuNzk0LTQtNFY5Ljg5OUE1LjAwOCA1LjAwOCAwIDAgMSAwIDVjMC0yLjc1NyAyLjI0My01IDUtNXM1IDIuMjQzIDUgNWE1LjAwNSA1LjAwNSAwIDAgMS00Ljk1MiA0Ljk5OEEyLjQ4MiAyLjQ4MiAwIDAgMCA3LjQ4MiAxMmguNTU4Yy4yNDQtMS42OTMgMS43LTMgMy40Ni0zYTMuNTAyIDMuNTAyIDAgMCAxIDMuNDYgM2gyLjA4YTMuNTAzIDMuNTAzIDAgMCAxIDMuNDYtM2MxLjkzIDAgMy41IDEuNTcgMy41IDMuNXptLTE1IDhjMCAxLjM3OCAxLjEyMiAyLjUgMi41IDIuNXMyLjUtMS4xMjIgMi41LTIuNS0xLjEyMi0yLjUtMi41LTIuNVM5IDE5LjEyMiA5IDIwLjV6TTUgOWMyLjIwNiAwIDQtMS43OTQgNC00UzcuMjA2IDEgNSAxIDEgMi43OTQgMSA1czEuNzk0IDQgNCA0em05IDMuNWMwLTEuMzc4LTEuMTIyLTIuNS0yLjUtMi41UzkgMTEuMTIyIDkgMTIuNXMxLjEyMiAyLjUgMi41IDIuNSAyLjUtMS4xMjIgMi41LTIuNXptOSAwYzAtMS4zNzgtMS4xMjItMi41LTIuNS0yLjVTMTggMTEuMTIyIDE4IDEyLjVzMS4xMjIgMi41IDIuNSAyLjUgMi41LTEuMTIyIDIuNS0yLjV6bS0xMyA4YS41LjUgMCAxIDAgMSAwIC41LjUgMCAwIDAtMSAwem0yIDBhLjUuNSAwIDEgMCAxIDAgLjUuNSAwIDAgMC0xIDB6bTEyIDBjMCAxLjkzLTEuNTcgMy41LTMuNSAzLjVhMy41MDMgMy41MDMgMCAwIDEtMy40Ni0zLjAwMmMtLjAwNy4wMDEtLjAxMy4wMDUtLjAyMS4wMDVsLS41MDYuMDE3aC0uMDE3YS41LjUgMCAwIDEtLjAxNi0uOTk5bC41MDYtLjAxN2MuMDE4LS4wMDIuMDM1LjAwNi4wNTIuMDA3QTMuNTAzIDMuNTAzIDAgMCAxIDIwLjUgMTdjMS45MyAwIDMuNSAxLjU3IDMuNSAzLjV6bS0xIDBjMC0xLjM3OC0xLjEyMi0yLjUtMi41LTIuNVMxOCAxOS4xMjIgMTggMjAuNXMxLjEyMiAyLjUgMi41IDIuNSAyLjUtMS4xMjIgMi41LTIuNXoiLz48L3N2Zz4=;" vertex="1" parent="1">
          <mxGeometry x="1662" y="600" width="74" height="74" as="geometry" />
        </mxCell>
        <mxCell id="z7q2-SJSHcn4AbD3mQaB-45" value="&lt;h3&gt;&lt;span style=&quot;font-weight: 400;&quot;&gt;GitHub Actions&lt;br&gt;CI Pipeline&lt;/span&gt;&lt;/h3&gt;" style="text;html=1;align=center;verticalAlign=middle;whiteSpace=wrap;rounded=0;" vertex="1" parent="1">
          <mxGeometry x="1637.25" y="680" width="123.5" height="30" as="geometry" />
        </mxCell>
        <mxCell id="z7q2-SJSHcn4AbD3mQaB-46" value="Code Review" style="text;html=1;align=center;verticalAlign=middle;resizable=0;points=[];autosize=1;strokeColor=none;fillColor=none;" vertex="1" parent="1">
          <mxGeometry x="1412" y="576" width="90" height="30" as="geometry" />
        </mxCell>
        <mxCell id="z7q2-SJSHcn4AbD3mQaB-47" value="Trigger Workflow" style="text;html=1;align=center;verticalAlign=middle;resizable=0;points=[];autosize=1;strokeColor=none;fillColor=none;" vertex="1" parent="1">
          <mxGeometry x="1562" y="576" width="110" height="30" as="geometry" />
        </mxCell>
        <mxCell id="z7q2-SJSHcn4AbD3mQaB-54" style="edgeStyle=orthogonalEdgeStyle;rounded=0;orthogonalLoop=1;jettySize=auto;html=1;entryX=1;entryY=0.5;entryDx=0;entryDy=0;" edge="1" parent="1" source="z7q2-SJSHcn4AbD3mQaB-48" target="z7q2-SJSHcn4AbD3mQaB-51">
          <mxGeometry relative="1" as="geometry" />
        </mxCell>
        <mxCell id="z7q2-SJSHcn4AbD3mQaB-48" value="" style="dashed=0;outlineConnect=0;html=1;align=center;labelPosition=center;verticalLabelPosition=bottom;verticalAlign=top;shape=mxgraph.weblogos.github" vertex="1" parent="1">
          <mxGeometry x="1662" y="257.5" width="75" height="75" as="geometry" />
        </mxCell>
        <mxCell id="z7q2-SJSHcn4AbD3mQaB-49" value="&lt;h3&gt;&lt;span style=&quot;font-weight: 400;&quot;&gt;Develop&lt;/span&gt;&lt;/h3&gt;" style="text;html=1;align=center;verticalAlign=middle;whiteSpace=wrap;rounded=0;" vertex="1" parent="1">
          <mxGeometry x="1659" y="220" width="81" height="30" as="geometry" />
        </mxCell>
        <mxCell id="z7q2-SJSHcn4AbD3mQaB-55" style="edgeStyle=orthogonalEdgeStyle;rounded=0;orthogonalLoop=1;jettySize=auto;html=1;" edge="1" parent="1" source="z7q2-SJSHcn4AbD3mQaB-51" target="z7q2-SJSHcn4AbD3mQaB-14">
          <mxGeometry relative="1" as="geometry" />
        </mxCell>
        <mxCell id="z7q2-SJSHcn4AbD3mQaB-51" value="" style="shape=image;verticalLabelPosition=bottom;labelBackgroundColor=default;verticalAlign=top;aspect=fixed;imageAspect=0;editableCssRules=.*;image=data:image/svg+xml,PHN2ZyB4bWxucz0iaHR0cDovL3d3dy53My5vcmcvMjAwMC9zdmciIHZpZXdCb3g9IjAgMCAxNiAxNiIgaGVpZ2h0PSIxNiIgd2lkdGg9IjE2Ij48cGF0aCBkPSJNMS41IDMuMjVhMi4yNSAyLjI1IDAgMSAxIDMgMi4xMjJ2NS4yNTZhMi4yNTEgMi4yNTEgMCAxIDEtMS41IDBWNS4zNzJBMi4yNSAyLjI1IDAgMCAxIDEuNSAzLjI1Wm01LjY3Ny0uMTc3TDkuNTczLjY3N0EuMjUuMjUgMCAwIDEgMTAgLjg1NFYyLjVoMUEyLjUgMi41IDAgMCAxIDEzLjUgNXY1LjYyOGEyLjI1MSAyLjI1MSAwIDEgMS0xLjUgMFY1YTEgMSAwIDAgMC0xLTFoLTF2MS42NDZhLjI1LjI1IDAgMCAxLS40MjcuMTc3TDcuMTc3IDMuNDI3YS4yNS4yNSAwIDAgMSAwLS4zNTRaTTMuNzUgMi41YS43NS43NSAwIDEgMCAwIDEuNS43NS43NSAwIDAgMCAwLTEuNVptMCA5LjVhLjc1Ljc1IDAgMSAwIDAgMS41Ljc1Ljc1IDAgMCAwIDAtMS41Wm04LjI1Ljc1YS43NS43NSAwIDEgMCAxLjUgMCAuNzUuNzUgMCAwIDAtMS41IDBaIi8+PC9zdmc+;" vertex="1" parent="1">
          <mxGeometry x="1502" y="254" width="81" height="81" as="geometry" />
        </mxCell>
        <mxCell id="z7q2-SJSHcn4AbD3mQaB-52" value="&lt;h3&gt;&lt;span style=&quot;font-weight: 400;&quot;&gt;Pull Request&lt;/span&gt;&lt;/h3&gt;" style="text;html=1;align=center;verticalAlign=middle;whiteSpace=wrap;rounded=0;" vertex="1" parent="1">
          <mxGeometry x="1502" y="210" width="81" height="30" as="geometry" />
        </mxCell>
        <mxCell id="z7q2-SJSHcn4AbD3mQaB-53" value="&lt;h3&gt;&lt;span style=&quot;font-weight: 400;&quot;&gt;Main&lt;/span&gt;&lt;/h3&gt;" style="text;html=1;align=center;verticalAlign=middle;whiteSpace=wrap;rounded=0;" vertex="1" parent="1">
          <mxGeometry x="1339" y="220" width="81" height="30" as="geometry" />
        </mxCell>
        <mxCell id="z7q2-SJSHcn4AbD3mQaB-56" value="&lt;h3&gt;&lt;span style=&quot;font-weight: 400;&quot;&gt;GitHub Actions&lt;br&gt;CD Pipeline&lt;/span&gt;&lt;/h3&gt;" style="text;html=1;align=center;verticalAlign=middle;whiteSpace=wrap;rounded=0;" vertex="1" parent="1">
          <mxGeometry x="1162.75" y="210" width="123.5" height="30" as="geometry" />
        </mxCell>
        <mxCell id="z7q2-SJSHcn4AbD3mQaB-60" style="edgeStyle=orthogonalEdgeStyle;rounded=0;orthogonalLoop=1;jettySize=auto;html=1;entryX=0.5;entryY=1;entryDx=0;entryDy=0;" edge="1" parent="1" source="z7q2-SJSHcn4AbD3mQaB-58" target="z7q2-SJSHcn4AbD3mQaB-13">
          <mxGeometry relative="1" as="geometry" />
        </mxCell>
        <mxCell id="z7q2-SJSHcn4AbD3mQaB-58" value="" style="shape=image;verticalLabelPosition=bottom;labelBackgroundColor=default;verticalAlign=top;aspect=fixed;imageAspect=0;editableCssRules=.*;image=data:image/svg+xml,PHN2ZyB4bWxucz0iaHR0cDovL3d3dy53My5vcmcvMjAwMC9zdmciIHZpZXdCb3g9IjAgMCAxNiAxNiIgaGVpZ2h0PSIxNiIgd2lkdGg9IjE2Ij48cGF0aCBkPSJNNSA1Ljc4MlYyLjVoLS4yNWEuNzUuNzUgMCAwIDEgMC0xLjVoNi41YS43NS43NSAwIDAgMSAwIDEuNUgxMXYzLjI4MmwzLjY2NiA1Ljc2QzE1LjYxOSAxMy4wNCAxNC41NDMgMTUgMTIuNzY3IDE1SDMuMjMzYy0xLjc3NiAwLTIuODUyLTEuOTYtMS44OTktMy40NThabS0yLjQgNi41NjVhLjc1Ljc1IDAgMCAwIC42MzMgMS4xNTNoOS41MzRhLjc1Ljc1IDAgMCAwIC42MzMtMS4xNTNMMTIuMjI1IDEwLjVoLTguNDVaTTkuNSAyLjVoLTNWNmMwIC4xNDMtLjA0LjI4My0uMTE3LjQwM0w0LjczIDloNi41NEw5LjYxNyA2LjQwM0EuNzQ2Ljc0NiAwIDAgMSA5LjUgNloiLz48L3N2Zz4=;" vertex="1" parent="1">
          <mxGeometry x="1194" y="400.5" width="61.5" height="61.5" as="geometry" />
        </mxCell>
        <mxCell id="z7q2-SJSHcn4AbD3mQaB-59" value="&lt;h3&gt;&lt;span style=&quot;background-color: transparent; color: light-dark(rgb(0, 0, 0), rgb(255, 255, 255)); font-size: 12px; font-weight: normal;&quot;&gt;🧪&amp;nbsp;&lt;/span&gt;&lt;span style=&quot;font-weight: 400;&quot;&gt;&lt;font&gt;Unit &lt;/font&gt;Test&lt;br&gt;&lt;/span&gt;📑&lt;span style=&quot;background-color: transparent; color: light-dark(rgb(0, 0, 0), rgb(255, 255, 255)); font-size: 12px; font-weight: 400;&quot;&gt;Template Validation&lt;/span&gt;&lt;/h3&gt;" style="text;html=1;align=left;verticalAlign=middle;whiteSpace=wrap;rounded=0;" vertex="1" parent="1">
          <mxGeometry x="1159.75" y="470" width="130" height="30" as="geometry" />
        </mxCell>
        <mxCell id="z7q2-SJSHcn4AbD3mQaB-63" style="edgeStyle=orthogonalEdgeStyle;rounded=0;orthogonalLoop=1;jettySize=auto;html=1;exitX=0.5;exitY=1;exitDx=0;exitDy=0;entryX=0.401;entryY=0.948;entryDx=0;entryDy=0;entryPerimeter=0;" edge="1" parent="1" source="z7q2-SJSHcn4AbD3mQaB-59" target="z7q2-SJSHcn4AbD3mQaB-59">
          <mxGeometry relative="1" as="geometry" />
        </mxCell>
        <mxCell id="z7q2-SJSHcn4AbD3mQaB-76" style="edgeStyle=orthogonalEdgeStyle;rounded=0;orthogonalLoop=1;jettySize=auto;html=1;" edge="1" parent="1" source="z7q2-SJSHcn4AbD3mQaB-64" target="2jsiGnZGVnY6SlIdnX9f-18">
          <mxGeometry relative="1" as="geometry" />
        </mxCell>
        <mxCell id="z7q2-SJSHcn4AbD3mQaB-64" value="" style="outlineConnect=0;dashed=0;verticalLabelPosition=bottom;verticalAlign=top;align=center;html=1;shape=mxgraph.aws3.cloudformation;fillColor=#759C3E;gradientColor=none;" vertex="1" parent="1">
          <mxGeometry x="967.5" y="249" width="76.5" height="93" as="geometry" />
        </mxCell>
        <mxCell id="z7q2-SJSHcn4AbD3mQaB-65" value="&lt;h3&gt;&lt;span style=&quot;font-weight: 400;&quot;&gt;AWS CloudFormation&lt;/span&gt;&lt;/h3&gt;" style="text;html=1;align=center;verticalAlign=middle;whiteSpace=wrap;rounded=0;" vertex="1" parent="1">
          <mxGeometry x="944" y="210" width="123.5" height="30" as="geometry" />
        </mxCell>
        <mxCell id="z7q2-SJSHcn4AbD3mQaB-69" style="edgeStyle=orthogonalEdgeStyle;rounded=0;orthogonalLoop=1;jettySize=auto;html=1;entryX=1;entryY=0.5;entryDx=0;entryDy=0;entryPerimeter=0;" edge="1" parent="1" source="z7q2-SJSHcn4AbD3mQaB-13" target="z7q2-SJSHcn4AbD3mQaB-64">
          <mxGeometry relative="1" as="geometry" />
        </mxCell>
        <mxCell id="z7q2-SJSHcn4AbD3mQaB-72" value="Deploy AWS SAM Stack&lt;div&gt;&lt;ul&gt;&lt;li&gt;API Gateway&lt;/li&gt;&lt;li&gt;Lambda&lt;/li&gt;&lt;li&gt;DynamoDB&amp;nbsp;&lt;/li&gt;&lt;li&gt;Cognito&lt;/li&gt;&lt;li&gt;IAM&lt;/li&gt;&lt;/ul&gt;&lt;/div&gt;" style="text;html=1;align=left;verticalAlign=middle;resizable=0;points=[];autosize=1;strokeColor=none;fillColor=none;" vertex="1" parent="1">
          <mxGeometry x="830" y="295" width="150" height="120" as="geometry" />
        </mxCell>
        <mxCell id="z7q2-SJSHcn4AbD3mQaB-74" value="" style="swimlane;startSize=0;fontColor=light-dark(#007dbc, #ededed);strokeColor=light-dark(#007dbc, #ededed);strokeWidth=4;" vertex="1" parent="1">
          <mxGeometry x="1200" y="560" width="720" height="180" as="geometry" />
        </mxCell>
        <mxCell id="z7q2-SJSHcn4AbD3mQaB-75" value="" style="swimlane;startSize=0;fontColor=light-dark(#007dbc, #ededed);strokeColor=light-dark(#e63946, #ededed);strokeWidth=4;" vertex="1" parent="1">
          <mxGeometry x="820" y="170" width="933" height="350" as="geometry" />
        </mxCell>
        <mxCell id="z7q2-SJSHcn4AbD3mQaB-80" value="&lt;h3 style=&quot;text-align: left;&quot;&gt;&lt;span style=&quot;font-size: 17px; font-weight: 400; text-wrap-mode: nowrap;&quot;&gt;🔵 Continuos Integration (CI)&lt;/span&gt;&lt;/h3&gt;&lt;div style=&quot;text-align: left;&quot;&gt;&lt;span style=&quot;text-wrap-mode: nowrap;&quot;&gt;&lt;font style=&quot;font-size: 17px;&quot;&gt;🔴&lt;/font&gt; &lt;font style=&quot;font-size: 17px;&quot;&gt;Continuos Deployment (CD)&lt;/font&gt;&lt;/span&gt;&lt;span style=&quot;font-size: 17px; font-weight: 400; text-wrap-mode: nowrap;&quot;&gt;&lt;/span&gt;&lt;/div&gt;&lt;div&gt;&lt;span style=&quot;font-size: 17px; font-weight: 400; text-wrap-mode: nowrap;&quot;&gt;&lt;br&gt;&lt;/span&gt;&lt;/div&gt;" style="text;html=1;align=center;verticalAlign=middle;whiteSpace=wrap;rounded=0;" vertex="1" parent="1">
          <mxGeometry x="827" y="560" width="221" height="63" as="geometry" />
        </mxCell>
      </root>
    </mxGraphModel>
  </diagram>
</mxfile>
